<svg width="932" height="706" viewBox="0 0 932 706" fill="none" xmlns="http://www.w3.org/2000/svg">
<path d="M52.0007 108.225L28.1577 132.073L50.4041 154.323L74.2471 130.476L52.0007 108.225Z" fill="#E1E6FB"/>
<path d="M78.3364 136.469L54.4934 160.316L76.7398 182.567L100.583 158.719L78.3364 136.469Z" fill="#E1E6FB"/>
<path d="M83.9778 80.0001L60.1348 103.848L82.3811 126.098L106.224 102.251L83.9778 80.0001Z" fill="#E1E6FB"/>
<path d="M836.652 486.518L812.809 510.365L835.055 532.616L858.898 508.768L836.652 486.518Z" fill="#E1E6FB"/>
<path d="M862.988 514.743L839.145 538.59L861.391 560.841L885.234 536.993L862.988 514.743Z" fill="#E1E6FB"/>
<path d="M834.763 542.979L810.92 566.826L833.166 589.077L857.009 565.229L834.763 542.979Z" fill="#E1E6FB"/>
<path d="M464.372 0H234.811V118.566H464.372V0Z" fill="#BAC5F4"/>
<path d="M184.007 444.153H97.4507V636.118H184.007V444.153Z" fill="#E1E6FB"/>
<path d="M138.847 461.091C138.847 461.091 63.5812 338.761 59.8179 306.767C56.0546 274.773 52.2913 263.481 52.2913 263.481C52.2913 263.481 74.871 259.717 82.3976 276.655C89.9242 293.593 112.504 272.891 120.031 318.059C120.031 318.059 121.912 340.643 138.847 333.115C155.782 325.587 138.847 461.091 138.847 461.091Z" fill="#E1E6FB"/>
<path d="M148.255 479.912C148.255 479.912 94.5154 380.165 76.7526 340.643C63.5811 311.322 52.2912 263.481 52.2912 263.481C52.2912 263.481 29.5985 271.799 31.5931 289.829C33.4747 306.767 16.5399 312.413 20.3032 333.115C24.3676 355.511 56.7319 359.708 37.238 380.165C25.4025 392.568 34.2838 413.74 42.883 427.215C48.3962 435.835 75.586 443.683 69.2261 440.39C54.6621 432.861 148.255 479.912 148.255 479.912Z" fill="#BAC5F4"/>
<path d="M114.164 396.269C116.052 395.4 108.423 374.795 97.124 350.247C85.8249 325.699 75.1348 306.503 73.2468 307.373C71.3589 308.242 78.9881 328.847 90.2871 353.395C101.586 377.943 112.276 397.138 114.164 396.269Z" fill="#BAC5F4"/>
<path d="M164.419 541.058C164.419 541.058 49.8264 454.486 34.6979 426.049C19.5695 397.612 11.9487 388.408 11.9487 388.408C11.9487 388.408 31.612 376.684 44.7835 389.726C57.9551 402.768 71.4653 375.272 94.8918 414.606C94.8918 414.606 97.4697 442.215 114.405 436.569C131.96 430.772 164.419 541.058 164.419 541.058Z" fill="#E1E6FB"/>
<path d="M180.018 555.192C180.018 555.192 93.6875 481.793 62.772 451.437C39.8347 428.853 11.9675 388.446 11.9675 388.446C11.9675 388.446 -6.15289 404.462 2.25808 420.44C10.161 435.496 -3.55616 446.958 7.48912 464.874C19.4188 484.259 51.1057 476.392 40.3803 502.514C33.8698 518.38 49.7886 534.866 62.7531 544.295C71.0136 550.317 99.2007 547.739 92.0881 546.986C75.7178 545.387 180.018 555.192 180.018 555.192Z" fill="#F8F8FF"/>
<path d="M106.502 512.451C107.945 510.954 93.348 494.534 73.8988 475.775C54.4496 457.015 37.5133 443.021 36.0706 444.517C34.6278 446.014 49.2249 462.434 68.6741 481.193C88.1233 499.953 105.06 513.947 106.502 512.451Z" fill="#E1E6FB"/>
<path d="M761.673 310.7C761.673 310.7 851.126 165.221 856.865 126.471C862.604 87.7203 867.346 74.1323 867.346 74.1323C867.346 74.1323 842.508 68.4862 833.326 88.8119C824.143 109.138 800.152 82.8836 789.578 137.499C789.578 137.499 786.379 164.901 767.976 154.983C749.574 145.065 761.673 310.7 761.673 310.7Z" fill="#E1E6FB"/>
<path d="M750.383 333.115C750.383 333.115 814.867 214.153 836.487 166.859C852.538 131.759 867.402 74.0569 867.402 74.0569C867.402 74.0569 892.146 85.2172 889.041 107.048C886.125 127.581 904.603 135.279 899.409 160.234C893.764 187.297 857.712 190.948 878.316 216.694C890.81 232.334 879.934 257.684 869.736 273.7C863.207 283.938 832.686 292.257 839.893 288.549C856.357 280.137 750.383 333.115 750.383 333.115Z" fill="#BAC5F4"/>
<path d="M813.399 177.831C799.663 207.19 790.199 231.92 792.25 233.068C794.301 234.216 807.096 211.33 820.832 181.971C834.568 152.612 844.032 127.882 841.981 126.734C839.931 125.586 827.116 148.453 813.399 177.831Z" fill="#BAC5F4"/>
<path d="M729.384 406.852C729.384 406.852 860.648 306.654 878.824 272.74C897.001 238.827 905.883 228.024 905.883 228.024C905.883 228.024 884.676 212.968 869.435 228.156C854.194 243.343 840.589 209.336 812.684 256.179C812.684 256.179 808.47 289.66 789.973 282.019C770.799 274.095 729.384 406.852 729.384 406.852Z" fill="#F8F8FF"/>
<path d="M711.395 423.32C711.395 423.32 810.69 337.914 846.441 302.382C872.972 276.034 905.882 228.024 905.882 228.024C905.882 228.024 925.169 248.331 915.046 267.546C905.525 285.557 920.183 300.067 907.068 321.371C892.88 344.407 858.145 333.435 868.776 365.73C875.211 385.322 856.696 404.688 841.925 415.566C832.517 422.529 801.376 418.106 809.297 417.448C827.531 416.111 711.395 423.32 711.395 423.32Z" fill="#E1E6FB"/>
<path d="M843.299 324.006C821.773 346.891 805.666 366.935 807.246 368.76C808.827 370.586 827.587 353.497 849.113 330.593C870.639 307.689 886.746 287.665 885.165 285.839C883.585 284.014 864.825 301.121 843.299 324.006Z" fill="white"/>
<path d="M343.947 444.153H199.06V636.118H343.947V444.153Z" fill="#BAC5F4"/>
<path d="M660.063 446.035H515.177V638H660.063V446.035Z" fill="#E1E6FB"/>
<path d="M571.626 0H477.544V120.448H571.626V0Z" fill="#E1E6FB"/>
<path d="M789.897 99.7463H133.202V583.422H789.897V99.7463Z" fill="#BAC5F4"/>
<path d="M789.898 99.7463H150.137V583.422H789.898V99.7463Z" fill="#F8F8FF"/>
<path d="M782.371 107.274H155.782V141.151H782.371V107.274Z" fill="white"/>
<path d="M782.371 139.269H155.782V575.894H782.371V139.269Z" fill="#E1E6FB"/>
<path d="M336.42 156.207H259.272V242.779H336.42V156.207Z" fill="#BAC5F4"/>
<path d="M422.976 156.207H345.828V242.779H422.976V156.207Z" fill="#BAC5F4"/>
<path d="M507.65 156.207H430.502V242.779H507.65V156.207Z" fill="#BAC5F4"/>
<path d="M594.206 156.207H517.058V242.779H594.206V156.207Z" fill="white"/>
<path d="M678.88 156.207H601.732V242.779H678.88V156.207Z" fill="white"/>
<path d="M765.436 156.207H688.288V242.779H765.436V156.207Z" fill="white"/>
<path d="M336.42 255.953H259.272V342.525H336.42V255.953Z" fill="white"/>
<path d="M422.976 255.953H345.828V342.525H422.976V255.953Z" fill="white"/>
<path d="M507.65 255.953H430.502V342.525H507.65V255.953Z" fill="#F8F8FF"/>
<path d="M594.206 255.953H517.058V342.525H594.206V255.953Z" fill="white"/>
<path d="M678.88 255.953H601.732V342.525H678.88V255.953Z" fill="white"/>
<path d="M765.436 255.953H688.288V342.525H765.436V255.953Z" fill="white"/>
<path d="M336.42 351.935H259.272V438.507H336.42V351.935Z" fill="white"/>
<path d="M422.976 351.935H345.828V438.507H422.976V351.935Z" fill="white"/>
<path d="M507.65 351.935H430.502V438.507H507.65V351.935Z" fill="#F8F8FF"/>
<path d="M594.206 351.935H517.058V438.507H594.206V351.935Z" fill="white"/>
<path d="M678.88 351.935H601.732V438.507H678.88V351.935Z" fill="#F8F8FF"/>
<path d="M765.436 351.935H688.288V438.507H765.436V351.935Z" fill="white"/>
<path d="M338.301 449.8H261.154V536.372H338.301V449.8Z" fill="#F8F8FF"/>
<path d="M424.857 449.8H347.71V536.372H424.857V449.8Z" fill="#F8F8FF"/>
<path d="M509.532 449.8H432.384V536.372H509.532V449.8Z" fill="white"/>
<path d="M596.088 449.8H518.94V536.372H596.088V449.8Z" fill="white"/>
<path d="M680.761 449.8H603.614V536.372H680.761V449.8Z" fill="#BAC5F4"/>
<path d="M767.318 449.8H690.17V536.372H767.318V449.8Z" fill="white"/>
<path d="M173.657 131.74C177.295 131.74 180.243 128.791 180.243 125.153C180.243 121.516 177.295 118.566 173.657 118.566C170.02 118.566 167.072 121.516 167.072 125.153C167.072 128.791 170.02 131.74 173.657 131.74Z" fill="#BAC5F4"/>
<path d="M194.355 131.74C197.993 131.74 200.941 128.791 200.941 125.153C200.941 121.516 197.993 118.566 194.355 118.566C190.718 118.566 187.77 121.516 187.77 125.153C187.77 128.791 190.718 131.74 194.355 131.74Z" fill="#BAC5F4"/>
<path d="M215.054 131.74C218.691 131.74 221.639 128.791 221.639 125.153C221.639 121.516 218.691 118.566 215.054 118.566C211.416 118.566 208.468 121.516 208.468 125.153C208.468 128.791 211.416 131.74 215.054 131.74Z" fill="#BAC5F4"/>
<path d="M235.752 254.071H183.066C178.389 254.071 174.598 257.863 174.598 262.54C174.598 267.217 178.389 271.009 183.066 271.009H235.752C240.428 271.009 244.219 267.217 244.219 262.54C244.219 257.863 240.428 254.071 235.752 254.071Z" fill="white"/>
<path d="M235.752 351.935H183.066C178.389 351.935 174.598 355.727 174.598 360.404C174.598 365.081 178.389 368.873 183.066 368.873H235.752C240.428 368.873 244.219 365.081 244.219 360.404C244.219 355.727 240.428 351.935 235.752 351.935Z" fill="white"/>
<path d="M235.752 449.8H183.066C178.389 449.8 174.598 453.591 174.598 458.269C174.598 462.946 178.389 466.738 183.066 466.738H235.752C240.428 466.738 244.219 462.946 244.219 458.269C244.219 453.591 240.428 449.8 235.752 449.8Z" fill="white"/>
<path d="M303.491 261.599H273.385C269.747 261.599 266.799 264.548 266.799 268.186C266.799 271.824 269.747 274.773 273.385 274.773H303.491C307.128 274.773 310.077 271.824 310.077 268.186C310.077 264.548 307.128 261.599 303.491 261.599Z" fill="#BAC5F4"/>
<path d="M284.674 286.065H271.503C268.905 286.065 266.799 288.171 266.799 290.77C266.799 293.368 268.905 295.475 271.503 295.475H284.674C287.272 295.475 289.379 293.368 289.379 290.77C289.379 288.171 287.272 286.065 284.674 286.065Z" fill="#BAC5F4"/>
<path d="M390.988 261.599H360.881C357.764 261.599 355.236 264.127 355.236 267.245C355.236 270.363 357.764 272.891 360.881 272.891H390.988C394.105 272.891 396.633 270.363 396.633 267.245C396.633 264.127 394.105 261.599 390.988 261.599Z" fill="#BAC5F4"/>
<path d="M646.892 462.973H616.786C613.668 462.973 611.141 465.501 611.141 468.619C611.141 471.738 613.668 474.265 616.786 474.265H646.892C650.01 474.265 652.537 471.738 652.537 468.619C652.537 465.501 650.01 462.973 646.892 462.973Z" fill="white"/>
<path d="M731.566 361.345H701.46C698.342 361.345 695.815 363.873 695.815 366.991C695.815 370.109 698.342 372.637 701.46 372.637H731.566C734.684 372.637 737.211 370.109 737.211 366.991C737.211 363.873 734.684 361.345 731.566 361.345Z" fill="#F5F5FC"/>
<path d="M729.684 263.481H699.578C696.46 263.481 693.933 266.009 693.933 269.127C693.933 272.245 696.46 274.773 699.578 274.773H729.684C732.802 274.773 735.329 272.245 735.329 269.127C735.329 266.009 732.802 263.481 729.684 263.481Z" fill="#F5F5FC"/>
<path d="M645.01 263.481H614.904C611.786 263.481 609.259 266.009 609.259 269.127C609.259 272.245 611.786 274.773 614.904 274.773H645.01C648.128 274.773 650.655 272.245 650.655 269.127C650.655 266.009 648.128 263.481 645.01 263.481Z" fill="#F5F5FC"/>
<path d="M362.763 295.475C366.92 295.475 370.29 292.105 370.29 287.947C370.29 283.789 366.92 280.419 362.763 280.419C358.606 280.419 355.236 283.789 355.236 287.947C355.236 292.105 358.606 295.475 362.763 295.475Z" fill="#BAC5F4"/>
<path d="M533.993 282.301C538.15 282.301 541.52 278.93 541.52 274.773C541.52 270.615 538.15 267.245 533.993 267.245C529.836 267.245 526.466 270.615 526.466 274.773C526.466 278.93 529.836 282.301 533.993 282.301Z" fill="#BAC5F4"/>
<path d="M560.336 282.301C564.493 282.301 567.863 278.93 567.863 274.773C567.863 270.615 564.493 267.245 560.336 267.245C556.179 267.245 552.81 270.615 552.81 274.773C552.81 278.93 556.179 282.301 560.336 282.301Z" fill="#BAC5F4"/>
<path d="M560.336 376.401C564.493 376.401 567.863 373.031 567.863 368.873C567.863 364.716 564.493 361.345 560.336 361.345C556.179 361.345 552.81 364.716 552.81 368.873C552.81 373.031 556.179 376.401 560.336 376.401Z" fill="#BAC5F4"/>
<path d="M533.993 376.401C538.15 376.401 541.52 373.031 541.52 368.873C541.52 364.716 538.15 361.345 533.993 361.345C529.836 361.345 526.466 364.716 526.466 368.873C526.466 373.031 529.836 376.401 533.993 376.401Z" fill="#BAC5F4"/>
<path d="M558.454 472.383C562.611 472.383 565.981 469.013 565.981 464.855C565.981 460.698 562.611 457.327 558.454 457.327C554.298 457.327 550.928 460.698 550.928 464.855C550.928 469.013 554.298 472.383 558.454 472.383Z" fill="#BAC5F4"/>
<path d="M532.111 472.383C536.268 472.383 539.638 469.013 539.638 464.855C539.638 460.698 536.268 457.327 532.111 457.327C527.954 457.327 524.585 460.698 524.585 464.855C524.585 469.013 527.954 472.383 532.111 472.383Z" fill="#BAC5F4"/>
<path d="M302.55 474.266C306.707 474.266 310.077 470.895 310.077 466.738C310.077 462.58 306.707 459.209 302.55 459.209C298.393 459.209 295.024 462.58 295.024 466.738C295.024 470.895 298.393 474.266 302.55 474.266Z" fill="#BAC5F4"/>
<path d="M276.207 474.266C280.364 474.266 283.734 470.895 283.734 466.738C283.734 462.58 280.364 459.209 276.207 459.209C272.05 459.209 268.68 462.58 268.68 466.738C268.68 470.895 272.05 474.266 276.207 474.266Z" fill="#BAC5F4"/>
<path d="M533.993 180.673C538.15 180.673 541.52 177.302 541.52 173.144C541.52 168.987 538.15 165.616 533.993 165.616C529.836 165.616 526.466 168.987 526.466 173.144C526.466 177.302 529.836 180.673 533.993 180.673Z" fill="#BAC5F4"/>
<path d="M445.555 180.673C449.712 180.673 453.082 177.302 453.082 173.144C453.082 168.987 449.712 165.616 445.555 165.616C441.399 165.616 438.029 168.987 438.029 173.144C438.029 177.302 441.399 180.673 445.555 180.673Z" fill="white"/>
<path d="M471.899 180.673C476.056 180.673 479.425 177.302 479.425 173.144C479.425 168.987 476.056 165.616 471.899 165.616C467.742 165.616 464.372 168.987 464.372 173.144C464.372 177.302 467.742 180.673 471.899 180.673Z" fill="white"/>
<path d="M360.881 180.673C365.038 180.673 368.408 177.302 368.408 173.144C368.408 168.987 365.038 165.616 360.881 165.616C356.725 165.616 353.355 168.987 353.355 173.144C353.355 177.302 356.725 180.673 360.881 180.673Z" fill="white"/>
<path d="M387.224 180.673C391.381 180.673 394.751 177.302 394.751 173.144C394.751 168.987 391.381 165.616 387.224 165.616C383.068 165.616 379.698 168.987 379.698 173.144C379.698 177.302 383.068 180.673 387.224 180.673Z" fill="white"/>
<path d="M276.207 180.673C280.364 180.673 283.734 177.302 283.734 173.144C283.734 168.987 280.364 165.616 276.207 165.616C272.05 165.616 268.68 168.987 268.68 173.144C268.68 177.302 272.05 180.673 276.207 180.673Z" fill="white"/>
<path d="M302.55 180.673C306.707 180.673 310.077 177.302 310.077 173.144C310.077 168.987 306.707 165.616 302.55 165.616C298.393 165.616 295.024 168.987 295.024 173.144C295.024 177.302 298.393 180.673 302.55 180.673Z" fill="white"/>
<path d="M573.571 201.286H576.333V203.35H573.571V207.971H571.028V203.35H561.964V201.86L570.878 188.065H573.571V201.286ZM564.835 201.286H571.028V191.524L570.728 192.071L564.835 201.286Z" fill="#BAC5F4"/>
<path d="M408.47 207.971H395.427V206.153L402.317 198.497C403.338 197.339 404.04 196.4 404.423 195.68C404.815 194.951 405.011 194.199 405.011 193.424C405.011 192.385 404.696 191.533 404.067 190.868C403.438 190.202 402.6 189.87 401.552 189.87C400.294 189.87 399.314 190.23 398.612 190.95C397.92 191.661 397.573 192.654 397.573 193.93H395.044C395.044 192.098 395.632 190.617 396.808 189.487C397.993 188.357 399.574 187.792 401.552 187.792C403.402 187.792 404.865 188.279 405.94 189.254C407.016 190.221 407.554 191.51 407.554 193.124C407.554 195.083 406.305 197.417 403.808 200.124L398.476 205.907H408.47V207.971Z" fill="white"/>
<path d="M320.481 286.975L312.237 305.459H309.584L317.801 287.631H307.028V285.553H320.481V286.975Z" fill="#BAC5F4"/>
<path d="M554.892 305.572H552.349V288.715L547.25 290.588V288.291L554.496 285.57H554.892V305.572ZM574.785 297.082C574.785 300.044 574.279 302.245 573.267 303.685C572.255 305.125 570.674 305.845 568.523 305.845C566.399 305.845 564.827 305.144 563.806 303.74C562.785 302.327 562.257 300.222 562.22 297.424V294.047C562.22 291.121 562.726 288.947 563.738 287.525C564.75 286.103 566.335 285.392 568.496 285.392C570.638 285.392 572.214 286.08 573.226 287.457C574.238 288.824 574.757 290.939 574.785 293.801V297.082ZM572.255 293.623C572.255 291.481 571.955 289.922 571.353 288.947C570.751 287.963 569.799 287.47 568.496 287.47C567.201 287.47 566.258 287.958 565.666 288.933C565.073 289.909 564.768 291.408 564.75 293.431V297.478C564.75 299.629 565.059 301.22 565.679 302.25C566.308 303.271 567.256 303.781 568.523 303.781C569.772 303.781 570.697 303.298 571.298 302.332C571.909 301.366 572.228 299.844 572.255 297.765V293.623Z" fill="#BAC5F4"/>
<path d="M475.204 403.003H472.661V386.146L467.562 388.019V385.722L474.808 383.001H475.204V403.003ZM483.777 393.023L484.788 383.097H494.988V385.435H486.935L486.333 390.863C487.309 390.289 488.416 390.001 489.656 390.001C491.469 390.001 492.909 390.603 493.976 391.806C495.042 393 495.575 394.618 495.575 396.66C495.575 398.71 495.019 400.328 493.907 401.513C492.805 402.689 491.26 403.277 489.273 403.277C487.514 403.277 486.078 402.789 484.966 401.814C483.854 400.839 483.221 399.49 483.066 397.767H485.458C485.613 398.906 486.019 399.768 486.675 400.351C487.331 400.925 488.197 401.212 489.273 401.212C490.448 401.212 491.369 400.811 492.034 400.009C492.709 399.207 493.046 398.1 493.046 396.687C493.046 395.356 492.682 394.29 491.952 393.488C491.232 392.677 490.271 392.271 489.068 392.271C487.965 392.271 487.099 392.513 486.47 392.996L485.8 393.542L483.777 393.023Z" fill="#BAC5F4"/>
<path d="M729.227 406.768H726.684V389.91L721.584 391.783V389.486L728.831 386.766H729.227V406.768ZM748.709 392.057C748.709 393.05 748.445 393.934 747.917 394.709C747.397 395.484 746.691 396.09 745.797 396.527C746.836 396.974 747.657 397.626 748.258 398.482C748.869 399.339 749.174 400.31 749.174 401.395C749.174 403.117 748.591 404.489 747.424 405.51C746.267 406.531 744.74 407.041 742.844 407.041C740.93 407.041 739.394 406.531 738.237 405.51C737.088 404.48 736.514 403.108 736.514 401.395C736.514 400.319 736.806 399.348 737.389 398.482C737.982 397.617 738.797 396.96 739.836 396.514C738.952 396.076 738.255 395.47 737.745 394.695C737.234 393.921 736.979 393.041 736.979 392.057C736.979 390.38 737.517 389.049 738.592 388.064C739.668 387.08 741.085 386.588 742.844 386.588C744.594 386.588 746.007 387.08 747.083 388.064C748.167 389.049 748.709 390.38 748.709 392.057ZM746.645 401.34C746.645 400.228 746.29 399.321 745.579 398.619C744.877 397.917 743.956 397.566 742.817 397.566C741.678 397.566 740.762 397.913 740.069 398.605C739.385 399.298 739.043 400.21 739.043 401.34C739.043 402.47 739.376 403.359 740.042 404.006C740.716 404.653 741.65 404.977 742.844 404.977C744.029 404.977 744.959 404.653 745.633 404.006C746.308 403.35 746.645 402.461 746.645 401.34ZM742.844 388.666C741.851 388.666 741.044 388.976 740.424 389.596C739.814 390.206 739.508 391.04 739.508 392.098C739.508 393.109 739.809 393.93 740.411 394.559C741.021 395.178 741.833 395.488 742.844 395.488C743.856 395.488 744.663 395.178 745.264 394.559C745.875 393.93 746.18 393.109 746.18 392.098C746.18 391.086 745.866 390.261 745.237 389.623C744.608 388.985 743.81 388.666 742.844 388.666Z" fill="#BAC5F4"/>
<path d="M403.13 487.466C403.13 490.428 402.624 492.629 401.612 494.069C400.601 495.509 399.019 496.229 396.868 496.229C394.744 496.229 393.172 495.527 392.151 494.124C391.131 492.711 390.602 490.606 390.565 487.807V484.43C390.565 481.505 391.071 479.331 392.083 477.909C393.095 476.487 394.681 475.776 396.841 475.776C398.983 475.776 400.56 476.464 401.571 477.841C402.583 479.208 403.103 481.322 403.13 484.184V487.466ZM400.601 484.007C400.601 481.865 400.3 480.306 399.698 479.331C399.097 478.346 398.144 477.854 396.841 477.854C395.547 477.854 394.603 478.342 394.011 479.317C393.418 480.292 393.113 481.792 393.095 483.815V487.862C393.095 490.013 393.405 491.604 394.024 492.634C394.653 493.654 395.601 494.165 396.868 494.165C398.117 494.165 399.042 493.682 399.644 492.716C400.254 491.749 400.573 490.227 400.601 488.149V484.007Z" fill="#BAC5F4"/>
<g clip-path="url(#clip0)">
<path d="M449.247 427.476C448.546 427.476 448 427.893 448 428.429C448 431.05 448.779 437.898 456.028 437.898C464.601 437.898 898.564 437.72 924.752 437.66C925.687 437.66 927.168 436.41 928.025 435.576C929.272 434.444 930.987 432.717 932 428.906C932.234 428.072 931.532 427.238 930.441 427.06C930.285 427.06 930.129 427 930.052 427L449.247 427.476Z" fill="url(#paint0_linear)"/>
<path d="M480.5 437.839C480.5 437.839 479.721 444.985 487.515 444.985C495.075 444.985 876.352 444.39 899.344 444.33C900.123 444.33 900.98 444.092 901.604 443.735C903.007 442.901 905.267 441.055 906.124 437.481L480.5 437.839Z" fill="url(#paint1_linear)"/>
<path d="M829.277 444.211H833.641L879.937 661.345L876.274 661.524L829.277 444.211Z" fill="url(#paint2_linear)"/>
<path d="M580.028 444.688H574.651L517.989 661.762L522.432 662L580.028 444.688Z" fill="url(#paint3_linear)"/>
<path d="M612.996 444.688H607.697L551.035 645.98L555.478 646.159L612.996 444.688Z" fill="url(#paint4_linear)"/>
<path d="M791.944 443.794H797.01L850.788 645.027L846.579 645.206L791.944 443.794Z" fill="url(#paint5_linear)"/>
</g>
<g clip-path="url(#clip1)">
<path d="M246.54 658.185L243.287 658.098L226.391 658.271C226.391 658.271 222.686 674.963 220.699 681.918C220.608 682.353 220.156 683.483 219.976 684.353C219.705 685.57 219.614 686.787 219.614 688.004C219.976 694.35 222.415 699.654 228.288 702.522C234.704 705.652 239.673 708.521 246.54 702.522C253.407 696.524 254.311 692.699 251.69 682.266C249.07 671.834 248.167 658.532 246.54 658.185Z" fill="#4B44BE"/>
<path d="M317.288 678.962C305.632 675.398 297.862 660.184 297.862 660.184L277.984 659.054C277.984 659.054 276.899 674.529 276.357 682.353C275.634 692.785 277.442 697.393 284.58 696.871C293.977 696.176 332.197 699.48 338.251 695.741C346.112 690.873 328.131 682.266 317.288 678.962Z" fill="#4B44BE"/>
<path d="M197.929 383.464V406.328L226.662 658.445H246.992C246.992 658.445 254.04 485.528 254.04 479.529C254.04 473.531 255.847 454.752 255.847 454.752C255.847 454.752 281.417 525.78 281.869 531.691C282.321 537.603 277.713 659.923 277.713 659.923L298.043 660.706C298.043 660.706 315.843 577.942 315.843 570.118C315.843 562.293 321.896 521.607 320.993 513.782C320.089 505.958 305 384.072 305 384.072L273.827 383.29L197.929 383.464Z" fill="url(#paint6_linear)"/>
<path d="M329.757 356.948L329.486 356.6C329.577 356.861 329.667 357.035 329.757 356.948ZM270.033 334.779L258.648 339.3L258.015 354.427L270.575 359.209C270.575 359.122 284.309 358.687 284.309 358.6C284.399 357.991 289.73 358.165 292.17 359.643L334.727 345.559L336.263 335.736C336.263 335.736 339.425 348.081 325.149 323.217L270.033 334.779ZM320.903 284.877L319.999 279.922L317.831 279.574L320.903 284.877ZM242.203 153.168C236.963 155.254 234.433 162.644 234.433 162.644C234.433 162.644 231.903 161.166 231.903 165.339C231.903 169.512 234.071 178.901 235.607 181.336C238.318 185.422 240.757 189.595 242.926 193.941C245.004 198.288 244.281 207.156 242.113 208.46C239.944 209.764 201.272 243.148 201.272 243.148L169.377 337.387V341.126L174.256 342.777L179.316 346.95C179.768 347.037 186.183 350.428 187.086 351.036C192.146 353.471 197.568 355.296 203.079 356.513C206.693 357.209 222.686 356.861 222.686 356.861L238.86 356.513L236.059 336.692L212.115 336.431L179.406 334.866L212.567 261.491L317.198 279.487C298.585 247.147 277.713 210.807 275.906 206.982C274.37 203.852 275.996 196.376 276.9 192.463C277.713 188.899 279.52 184.552 281.237 183.248C282.953 181.944 286.025 176.206 286.025 173.685C286.025 171.164 286.748 161.34 284.58 163.427C283.947 164.035 281.417 160.297 280.514 156.559C279.068 151.168 275.183 147.343 270.665 143.866C270.665 143.866 247.624 151.168 242.474 153.255" fill="url(#paint7_linear)"/>
<path d="M202.176 222.891C197.116 226.195 192.417 230.629 190.701 236.367C188.984 242.104 176.786 286.79 175.159 292.441C171.184 306.264 168.835 310.263 164.136 326.52C158.353 346.516 171.636 349.559 185.189 352.514C199.284 355.557 199.375 356.861 202.718 356.861C203.26 356.861 219.976 360.165 220.518 351.036C220.879 345.299 219.795 336.17 217.536 336.431C212.386 337.127 195.76 332.867 194.947 332.345C193.863 331.65 198.561 319.131 201.272 311.393C203.26 305.655 210.94 281.835 212.657 277.401C213.56 274.967 208.32 300.526 205.157 325.564C205.067 326.52 203.802 336.257 204.163 336.257C207.958 336.257 218.349 336.431 221.602 336.779C236.24 338.431 239.041 345.125 238.137 350.515C236.511 359.904 200.911 355.557 201.091 356.774C201.091 356.774 194.947 383.377 198.381 385.029C201.362 386.507 241.3 402.503 249.793 405.633C250.696 405.981 251.781 405.546 252.142 404.59C252.142 404.59 252.142 404.59 252.142 404.503L257.563 389.549C257.654 389.376 257.835 389.289 258.015 389.376C258.106 389.376 258.196 389.463 258.196 389.549L263.346 405.894C263.437 406.328 263.798 406.676 264.159 406.85H266.418L310.783 397.635C310.783 397.635 310.602 380.769 310.512 359.209C310.512 357.035 310.15 349.037 308.524 350.515C306.897 351.993 269.852 356.687 265.786 355.036C257.202 351.558 259.461 342.951 262.443 339.387C265.876 335.301 309.608 333.301 309.789 330.259C310.512 317.044 309.427 282.356 308.705 286.529C307.62 293.05 282.05 328.694 282.05 334.866C282.05 341.039 281.598 356.687 281.598 356.687L323.613 353.558C323.613 353.558 337.709 348.863 338.974 341.039C340.239 333.214 338.703 329.737 338.16 318.087C337.799 310.698 326.956 266.273 323.884 253.667C323.432 251.754 323.161 249.842 322.981 247.929C322.619 242.713 320.451 230.542 308.795 225.239C294.338 218.632 283.044 213.415 280.152 213.415C277.442 213.415 270.033 229.064 266.147 233.498C264.43 235.497 264.792 236.454 262.533 239.409C261.358 240.974 259.19 241.235 257.563 240.192C257.202 239.931 256.931 239.583 256.66 239.236C255.395 237.497 254.311 235.584 253.317 233.672C251.6 230.368 238.318 211.503 238.318 211.503C238.318 211.503 207.236 219.501 202.176 222.891Z" fill="url(#paint8_linear)"/>
<path d="M270.575 143.953C270.575 143.953 242.203 154.124 240.215 155.602C238.227 157.08 234.432 162.644 234.432 162.644C234.432 162.644 232.445 161.601 231.993 164.47C231.993 164.47 229.101 158.732 228.74 155.515C228.379 152.299 228.74 144.04 234.161 138.563C239.583 133.085 250.516 125.87 257.292 126.826C264.069 127.782 266.96 128.565 271.207 132.651C275.454 136.737 279.068 137.954 280.333 138.563C281.598 139.171 286.477 142.562 287.29 148.908C288.103 155.254 285.845 167.947 285.845 167.947C285.845 167.947 286.477 162.992 284.399 164.557C282.953 165.6 280.875 161.079 280.243 158.384C279.429 155.776 272.111 144.648 270.575 143.953Z" fill="url(#paint9_linear)"/>
<g opacity="0.07">
<g opacity="0.07">
<g opacity="0.07">
<path opacity="0.07" d="M280.062 213.502C279.881 212.981 283.134 215.328 279.339 212.72C274.008 208.982 276.538 193.681 276.538 193.681C274.55 197.68 271.117 200.809 266.87 202.374C260.093 204.809 258.015 202.983 268.496 208.808C278.797 214.546 273.466 216.545 272.743 224.109" fill="black"/>
</g>
</g>
</g>
<g opacity="0.07">
<g opacity="0.07">
<g opacity="0.07">
<path opacity="0.07" d="M300.844 267.577L314.939 318.957C314.939 318.957 314.849 328.085 312.048 329.476C309.247 330.867 300.392 331.737 298.314 332.606C296.235 333.475 274.641 337.822 280.243 330.519C281.508 328.868 310.783 319.044 297.681 308.698C284.58 298.353 286.929 284.008 293.254 274.097C299.579 264.187 298.223 255.754 298.223 255.754L300.844 267.577Z" fill="black"/>
</g>
</g>
</g>
<g opacity="0.07">
<g opacity="0.07">
<g opacity="0.07">
<path opacity="0.07" d="M241.119 403.025C241.119 403.025 228.921 465.272 235.246 490.136C244.823 527.866 230.999 578.898 230.999 603.414C230.999 619.324 237.505 663.314 237.956 681.223C238.047 686.613 242.113 697.046 239.131 699.48C237.866 700.523 230.095 698.089 225.849 696.176C223.59 695.133 222.325 692.873 222.596 690.612L225.126 680.006L228.74 665.922L203.441 438.147C203.441 438.147 195.309 387.463 199.917 387.289C204.525 387.115 241.209 403.025 241.119 403.025Z" fill="black"/>
</g>
</g>
</g>
<path d="M229.553 319.304L277.351 325.042C278.345 325.303 278.978 326.172 278.887 327.216L277.532 368.772C277.441 370.076 276.628 371.814 275.363 371.467L227.836 362.686C226.933 362.425 226.3 361.643 226.3 360.686L226.12 356.166L231.36 354.862C232.716 354.514 233.981 353.818 235.065 353.036C235.336 352.862 235.517 352.688 235.697 352.427L236.782 350.863C237.143 350.428 237.233 349.819 237.143 349.211C236.962 348.254 236.691 346.95 236.51 346.255C236.42 345.994 236.33 345.733 236.239 345.559L235.065 343.125C234.523 341.995 233.619 341.126 232.445 340.604L231.722 340.256L226.571 337.561L227.023 321.304C227.023 320.174 228.017 319.304 229.192 319.304C229.372 319.304 229.463 319.304 229.553 319.304Z" fill="white"/>
</g>
<g clip-path="url(#clip2)">
<path d="M582.33 433L681.319 428.077L696 345.133L595.516 346.114L580.5 432.951" fill="url(#paint10_linear)"/>
<path d="M639.519 399.241C642.833 399.241 645.52 395.82 645.52 391.6C645.52 387.38 642.833 383.959 639.519 383.959C636.205 383.959 633.518 387.38 633.518 391.6C633.518 395.82 636.205 399.241 639.519 399.241Z" fill="white"/>
<path d="M581.457 426.857L527.422 426.788C527.264 426.787 527.111 426.851 526.987 426.969C526.863 427.087 526.777 427.253 526.743 427.438L526.016 431.342C525.993 431.464 525.994 431.589 526.018 431.71C526.041 431.831 526.087 431.944 526.151 432.04C526.216 432.137 526.298 432.215 526.391 432.269C526.484 432.322 526.586 432.35 526.689 432.35L580.522 432.943C580.677 432.945 580.829 432.885 580.952 432.771C581.075 432.657 581.163 432.497 581.201 432.316L582.13 427.887C582.156 427.764 582.158 427.636 582.136 427.512C582.114 427.389 582.069 427.273 582.004 427.173C581.939 427.074 581.856 426.993 581.761 426.939C581.666 426.884 581.562 426.856 581.457 426.857Z" fill="url(#paint11_linear)"/>
<path d="M593.86 343.84L694.347 343C694.419 342.999 694.489 343.018 694.554 343.055C694.619 343.092 694.675 343.146 694.72 343.213L696.006 345.133L595.914 346.106C595.804 346.107 595.698 346.155 595.614 346.24C595.53 346.325 595.473 346.443 595.453 346.574L582.412 432.51C582.391 432.644 582.332 432.765 582.244 432.851C582.156 432.936 582.045 432.981 581.931 432.977L581.043 432.947C580.976 432.945 580.909 432.925 580.848 432.889C580.787 432.853 580.733 432.802 580.69 432.739C580.647 432.676 580.615 432.603 580.598 432.524C580.58 432.445 580.577 432.362 580.588 432.282L593.036 344.692C593.065 344.454 593.165 344.238 593.316 344.081C593.468 343.925 593.661 343.839 593.86 343.84Z" fill="url(#paint12_linear)"/>
</g>
<g clip-path="url(#clip3)">
<path d="M484.796 408.237C484.107 408.075 483.408 407.946 482.702 407.851C481.96 407.703 481.187 407.724 480.456 407.909C479.725 408.095 479.06 408.44 478.523 408.912C477.816 409.653 477.358 410.55 477.199 411.505C476.862 412.945 476.959 414.437 477.479 415.835C477.999 417.232 478.926 418.486 480.167 419.475C481.93 421.006 483.883 422.359 485.99 423.509C486.29 423.656 486.546 423.863 486.737 424.113C486.928 424.364 487.049 424.65 487.089 424.95C487.728 427.047 488.534 429.101 489.503 431.099C489.555 431.196 489.632 431.281 489.728 431.346C489.824 431.412 489.937 431.457 490.057 431.478C494.296 432.52 498.776 432.554 503.035 431.577C504.021 431.289 504.021 431.289 504.471 430.424C506.17 426.416 507.388 422.264 508.105 418.034C508.782 414.189 509.071 410.299 508.971 406.41C508.971 405.743 508.971 405.652 508.105 405.455C506.78 405.111 505.411 404.917 504.03 404.878C500.444 404.623 496.844 404.557 493.249 404.681C490.957 404.718 488.675 404.944 486.431 405.356C485.877 405.455 485.445 405.644 484.995 405.743C484.779 405.834 484.666 405.932 484.666 406.122C484.768 406.823 484.812 407.53 484.796 408.237ZM486.224 421.674H486.12C482.46 419.991 480.003 417.519 479.726 413.682C479.654 412.874 479.754 412.062 480.02 411.286C480.137 410.954 480.349 410.654 480.635 410.414C480.921 410.174 481.272 410.002 481.655 409.913C482.26 409.83 482.88 409.923 483.42 410.176C483.96 410.429 484.391 410.829 484.649 411.316V412.378C484.804 414.726 485.128 417.063 485.618 419.376C485.722 420.051 485.955 420.809 486.18 421.651L486.224 421.674Z" fill="url(#paint13_linear)"/>
<path d="M484.995 405.743C484.995 405.743 496.641 402.626 508.979 405.743C508.979 405.72 498.717 409.345 484.995 405.743Z" fill="#4A41BC"/>
<path d="M504.514 382.282C504.913 384.148 504.825 386.068 504.258 387.9C503.69 389.732 502.656 391.427 501.235 392.86C500.067 394.202 498.89 395.377 497.722 396.719C495.908 398.781 494.701 401.203 494.209 403.771C494.209 404.105 493.976 404.613 493.976 404.947C493.976 404.272 493.742 403.771 493.742 403.096C493.663 400.046 494.825 397.07 497.021 394.702C497.967 393.589 498.984 392.523 500.067 391.51C502.311 389.136 503.842 386.308 504.523 383.283" fill="url(#paint14_linear)"/>
<path d="M489.278 400.92C489.244 400.577 489.165 400.239 489.044 399.912C488.918 397.383 489.927 394.911 491.856 393.027C492.913 391.988 493.855 390.863 494.668 389.668C495.703 388.231 496.419 386.636 496.779 384.966C496.822 384.769 496.97 383.867 496.97 384.443L497.013 384.633C497.131 385.074 497.21 385.523 497.246 385.975C497.223 388.245 496.306 390.439 494.651 392.185L491.839 395.218C490.84 396.448 490.107 397.828 489.676 399.29C489.63 399.472 489.606 399.657 489.606 399.843C489.605 400.225 489.488 400.599 489.269 400.928L489.278 400.92Z" fill="url(#paint15_linear)"/>
<path d="M502.014 402.421C502.014 402.346 501.823 401.701 501.763 401.132C501.636 398.603 502.646 396.132 504.575 394.247C505.632 393.209 506.574 392.084 507.387 390.888C508.422 389.451 509.138 387.856 509.498 386.187C509.55 386.013 509.792 385.141 509.714 385.755V385.922C509.822 386.342 509.9 386.767 509.948 387.195C509.925 389.466 509.008 391.659 507.352 393.406L504.54 396.439C503.542 397.669 502.809 399.049 502.377 400.511C502.331 400.692 502.308 400.878 502.308 401.064C502.292 401.451 502.214 401.834 502.074 402.201L502.014 402.421Z" fill="url(#paint16_linear)"/>
</g>
<g clip-path="url(#clip4)">
<path d="M846.048 415.32H818.629C818.374 415.32 818.168 415.528 818.168 415.785C818.168 416.042 818.374 416.25 818.629 416.25H846.048C846.302 416.25 846.508 416.042 846.508 415.785C846.508 415.528 846.302 415.32 846.048 415.32Z" fill="#F4F4F4"/>
<path d="M846.048 416.995H818.629C818.374 416.995 818.168 417.203 818.168 417.46C818.168 417.717 818.374 417.925 818.629 417.925H846.048C846.302 417.925 846.508 417.717 846.508 417.46C846.508 417.203 846.302 416.995 846.048 416.995Z" fill="#F4F4F4"/>
<path d="M846.048 418.67H818.629C818.374 418.67 818.168 418.878 818.168 419.135C818.168 419.392 818.374 419.6 818.629 419.6H846.048C846.302 419.6 846.508 419.392 846.508 419.135C846.508 418.878 846.302 418.67 846.048 418.67Z" fill="#F4F4F4"/>
<path d="M849.912 424.067H824.885C824.631 424.067 824.425 424.276 824.425 424.533C824.425 424.79 824.631 424.998 824.885 424.998H849.912C850.166 424.998 850.372 424.79 850.372 424.533C850.372 424.276 850.166 424.067 849.912 424.067Z" fill="#F4F4F4"/>
<path d="M849.912 425.742H824.885C824.631 425.742 824.425 425.951 824.425 426.208C824.425 426.465 824.631 426.673 824.885 426.673H849.912C850.166 426.673 850.372 426.465 850.372 426.208C850.372 425.951 850.166 425.742 849.912 425.742Z" fill="#F4F4F4"/>
<path d="M849.912 427.418H824.885C824.631 427.418 824.425 427.626 824.425 427.883C824.425 428.14 824.631 428.348 824.885 428.348H849.912C850.166 428.348 850.372 428.14 850.372 427.883C850.372 427.626 850.166 427.418 849.912 427.418Z" fill="#F4F4F4"/>
<path d="M781.793 413.535C781.793 413.535 778.052 413.831 778.052 417.553C778.052 421.276 781.916 421.462 781.916 421.462L847.06 421.648V420.531H817.984C817.984 420.531 817.064 420.717 817.248 419.228V415.32C817.238 415.097 817.316 414.879 817.465 414.714C817.614 414.549 817.821 414.451 818.041 414.441H818.124C819.429 414.426 846.692 414.761 846.692 414.761V413.272L781.793 413.535Z" fill="url(#paint17_linear)"/>
<path d="M784.539 421.477C784.539 421.477 780.49 421.91 780.49 426.042C780.49 429.579 783.328 430.388 784.139 430.548C784.261 430.572 784.384 430.584 784.507 430.584L851.004 430.662L850.947 429.281L825.161 429.206C825.161 429.206 823.505 429.186 823.689 427.55V424.053C823.689 424.053 823.505 422.765 824.977 422.765C826.266 422.765 850.556 423.038 850.556 423.038V421.276L784.539 421.477Z" fill="url(#paint18_linear)"/>
<path d="M822.088 415.32H824.297C824.929 415.767 825.386 416.426 825.585 417.181C825.953 418.484 825.585 418.856 826.321 420.345C826.755 421.222 827.265 421.802 827.609 422.392C827.681 422.517 827.775 423.366 827.793 423.509L827.977 425.743L827.057 425.184L826.137 426.115C826.137 426.115 826.137 423.137 825.769 422.578C825.401 422.02 823.949 419.973 824.113 418.484C824.297 416.809 823.745 416.25 822.088 415.32Z" fill="#F8246A"/>
<path d="M862.948 374.372H857.917C856.698 374.372 855.709 375.372 855.709 376.606V429.651C855.709 430.885 856.698 431.885 857.917 431.885H862.948C864.168 431.885 865.157 430.885 865.157 429.651V376.606C865.157 375.372 864.168 374.372 862.948 374.372Z" fill="url(#paint19_linear)"/>
<path d="M758.239 374H753.208C751.989 374 751 375 751 376.233V429.279C751 430.512 751.989 431.512 753.208 431.512H758.239C759.459 431.512 760.448 430.512 760.448 429.279V376.233C760.448 375 759.459 374 758.239 374Z" fill="url(#paint20_linear)"/>
<path d="M879.2 395.084L875.582 397.196C874.526 397.813 874.164 399.179 874.774 400.247L892.263 430.886C892.873 431.954 894.224 432.32 895.28 431.703L898.898 429.591C899.954 428.974 900.316 427.608 899.706 426.54L882.216 395.901C881.607 394.833 880.256 394.467 879.2 395.084Z" fill="url(#paint21_linear)"/>
<path d="M872.271 382.562H867.24C866.02 382.562 865.032 383.562 865.032 384.795V429.651C865.032 430.885 866.02 431.885 867.24 431.885H872.271C873.491 431.885 874.479 430.885 874.479 429.651V384.795C874.479 383.562 873.491 382.562 872.271 382.562Z" fill="url(#paint22_linear)"/>
<path d="M767.747 376.047H762.716C761.496 376.047 760.507 377.047 760.507 378.281V429.279C760.507 430.512 761.496 431.512 762.716 431.512H767.747C768.966 431.512 769.955 430.512 769.955 429.279V378.281C769.955 377.047 768.966 376.047 767.747 376.047Z" fill="url(#paint23_linear)"/>
</g>
<g clip-path="url(#clip5)">
<path d="M634.285 185.256L612.868 135.114C604.263 114.963 619.045 92.5737 640.956 92.5737C662.234 92.5737 676.588 114.329 668.232 133.882L646.29 185.256C645.788 186.432 644.951 187.435 643.884 188.139C642.817 188.844 641.566 189.22 640.288 189.22C639.009 189.22 637.758 188.844 636.691 188.139C635.624 187.435 634.788 186.432 634.285 185.256Z" fill="url(#paint24_linear)"/>
<path d="M640.544 139.768C649.742 139.768 657.199 132.311 657.199 123.113C657.199 113.915 649.742 106.458 640.544 106.458C631.346 106.458 623.89 113.915 623.89 123.113C623.89 132.311 631.346 139.768 640.544 139.768Z" fill="white"/>
<path d="M601.33 135.867H589.003V139.772H601.33V135.867Z" fill="#EFEFEF"/>
<path d="M693.997 135.867H681.67V139.772H693.997V135.867Z" fill="#EFEFEF"/>
<path d="M679.537 172.167L670.82 163.451L668.06 166.211L676.776 174.928L679.537 172.167Z" fill="#EFEFEF"/>
<path d="M611.829 164.72L603.113 173.436L605.874 176.197L614.59 167.48L611.829 164.72Z" fill="#EFEFEF"/>
<path d="M607.848 103.497L597.863 96.2246L595.559 99.3871L605.544 106.66L607.848 103.497Z" fill="#EFEFEF"/>
<path d="M643.318 86.3269V74H639.414V86.3269H643.318Z" fill="#EFEFEF"/>
<path d="M673.088 105.87L683.764 99.7063L681.811 96.325L671.136 102.488L673.088 105.87Z" fill="#EFEFEF"/>
</g>
<defs>
<linearGradient id="paint0_linear" x1="447.992" y1="432.449" x2="932.015" y2="432.449" gradientUnits="userSpaceOnUse">
<stop stop-color="#58CAEA"/>
<stop offset="1" stop-color="#4C4CBF"/>
</linearGradient>
<linearGradient id="paint1_linear" x1="480.44" y1="441.245" x2="906.023" y2="441.245" gradientUnits="userSpaceOnUse">
<stop stop-color="#4B45BD"/>
<stop offset="1" stop-color="#4C4CBF"/>
</linearGradient>
<linearGradient id="paint2_linear" x1="829.253" y1="552.864" x2="879.914" y2="552.864" gradientUnits="userSpaceOnUse">
<stop stop-color="#4B45BD"/>
<stop offset="1" stop-color="#4C4CBF"/>
</linearGradient>
<linearGradient id="paint3_linear" x1="582.503" y1="553.338" x2="520.688" y2="553.338" gradientUnits="userSpaceOnUse">
<stop stop-color="#4B45BD"/>
<stop offset="1" stop-color="#4C4CBF"/>
</linearGradient>
<linearGradient id="paint4_linear" x1="615.412" y1="545.423" x2="553.607" y2="545.423" gradientUnits="userSpaceOnUse">
<stop stop-color="#4B45BD"/>
<stop offset="1" stop-color="#4C4CBF"/>
</linearGradient>
<linearGradient id="paint5_linear" x1="791.554" y1="544.509" x2="850.351" y2="544.509" gradientUnits="userSpaceOnUse">
<stop stop-color="#4B45BD"/>
<stop offset="1" stop-color="#4C4CBF"/>
</linearGradient>
<linearGradient id="paint6_linear" x1="197.911" y1="522.133" x2="321" y2="522.133" gradientUnits="userSpaceOnUse">
<stop stop-color="#4F68CA"/>
<stop offset="1" stop-color="#5ACEED"/>
</linearGradient>
<linearGradient id="paint7_linear" x1="169.413" y1="251.785" x2="336.556" y2="251.785" gradientUnits="userSpaceOnUse">
<stop stop-color="#F87B58"/>
<stop offset="0.41" stop-color="#F89453"/>
<stop offset="0.71" stop-color="#F8C548"/>
<stop offset="1" stop-color="#F89C51"/>
</linearGradient>
<linearGradient id="paint8_linear" x1="162.727" y1="309.281" x2="339.451" y2="309.281" gradientUnits="userSpaceOnUse">
<stop stop-color="#E1A1ED"/>
<stop offset="1" stop-color="#7658F4"/>
</linearGradient>
<linearGradient id="paint9_linear" x1="228.584" y1="147.354" x2="287.402" y2="147.354" gradientUnits="userSpaceOnUse">
<stop stop-color="#5ACEED"/>
<stop offset="0.55" stop-color="#4F68CA"/>
<stop offset="1" stop-color="#5282D3"/>
</linearGradient>
<linearGradient id="paint10_linear" x1="580.5" y1="389.065" x2="695.997" y2="389.065" gradientUnits="userSpaceOnUse">
<stop stop-color="#CD94EF"/>
<stop offset="1" stop-color="#7D5DF5"/>
</linearGradient>
<linearGradient id="paint11_linear" x1="526" y1="429.867" x2="582.153" y2="429.867" gradientUnits="userSpaceOnUse">
<stop stop-color="#7A5BF5"/>
<stop offset="1" stop-color="#8260F4"/>
</linearGradient>
<linearGradient id="paint12_linear" x1="580.582" y1="387.996" x2="696" y2="387.996" gradientUnits="userSpaceOnUse">
<stop stop-color="#7A5BF5"/>
<stop offset="0.71" stop-color="#8260F4"/>
</linearGradient>
<linearGradient id="paint13_linear" x1="514.127" y1="412.537" x2="463.648" y2="432.55" gradientUnits="userSpaceOnUse">
<stop stop-color="#59CFEE"/>
<stop offset="1" stop-color="#4A41BC"/>
</linearGradient>
<linearGradient id="paint14_linear" x1="12315.2" y1="-35037.1" x2="12152.2" y2="-34862" gradientUnits="userSpaceOnUse">
<stop stop-color="#59CFEE"/>
<stop offset="1" stop-color="#4A41BC"/>
</linearGradient>
<linearGradient id="paint15_linear" x1="9239.83" y1="-25490.5" x2="9156.9" y2="-25379.4" gradientUnits="userSpaceOnUse">
<stop stop-color="#59CFEE"/>
<stop offset="1" stop-color="#4A41BC"/>
</linearGradient>
<linearGradient id="paint16_linear" x1="9354.39" y1="-25795.5" x2="9269.04" y2="-25682.6" gradientUnits="userSpaceOnUse">
<stop stop-color="#59CFEE"/>
<stop offset="1" stop-color="#4A41BC"/>
</linearGradient>
<linearGradient id="paint17_linear" x1="778.052" y1="417.46" x2="847.06" y2="417.46" gradientUnits="userSpaceOnUse">
<stop stop-color="#E5A4ED"/>
<stop offset="1" stop-color="#7A5BF5"/>
</linearGradient>
<linearGradient id="paint18_linear" x1="780.496" y1="425.968" x2="851.009" y2="425.968" gradientUnits="userSpaceOnUse">
<stop stop-color="#F71F68"/>
<stop offset="1" stop-color="#F9C448"/>
</linearGradient>
<linearGradient id="paint19_linear" x1="5732.3" y1="15007.8" x2="10579.9" y2="14014.2" gradientUnits="userSpaceOnUse">
<stop stop-color="#E5A4ED"/>
<stop offset="1" stop-color="#7A5BF5"/>
</linearGradient>
<linearGradient id="paint20_linear" x1="251.88" y1="14892.4" x2="5099.44" y2="13898.8" gradientUnits="userSpaceOnUse">
<stop stop-color="#E5A4ED"/>
<stop offset="1" stop-color="#7A5BF5"/>
</linearGradient>
<linearGradient id="paint21_linear" x1="20394.3" y1="12692.4" x2="22886.2" y2="9907.04" gradientUnits="userSpaceOnUse">
<stop stop-color="#E5A4ED"/>
<stop offset="1" stop-color="#7A5BF5"/>
</linearGradient>
<linearGradient id="paint22_linear" x1="6316.9" y1="13388" x2="10472.5" y2="12394.8" gradientUnits="userSpaceOnUse">
<stop stop-color="#F71F68"/>
<stop offset="1" stop-color="#F9C448"/>
</linearGradient>
<linearGradient id="paint23_linear" x1="773.639" y1="14505.8" x2="5449.09" y2="13512.1" gradientUnits="userSpaceOnUse">
<stop stop-color="#F71F68"/>
<stop offset="1" stop-color="#F9C448"/>
</linearGradient>
<linearGradient id="paint24_linear" x1="610.382" y1="140.894" x2="670.644" y2="140.894" gradientUnits="userSpaceOnUse">
<stop stop-color="#93DF93"/>
<stop offset="1" stop-color="#21C2C1"/>
</linearGradient>
<clipPath id="clip0">
<rect width="484" height="235" fill="white" transform="translate(448 427)"/>
</clipPath>
<clipPath id="clip1">
<rect width="267" height="579" fill="white" transform="translate(127 127)"/>
</clipPath>
<clipPath id="clip2">
<rect width="170" height="90" fill="white" transform="translate(526 343)"/>
</clipPath>
<clipPath id="clip3">
<rect width="33" height="50" fill="white" transform="translate(477 381)"/>
</clipPath>
<clipPath id="clip4">
<rect width="149" height="58" fill="white" transform="translate(751 374)"/>
</clipPath>
<clipPath id="clip5">
<rect width="105" height="115.219" fill="white" transform="translate(589 74)"/>
</clipPath>
</defs>
</svg>
